<?xml version="1.0"?>
<svg version="1.1" xmlns="http://www.w3.org/2000/svg" xmlns:xlink="http://www.w3.org/1999/xlink" width="500" height="220">
    <desc iVinci="yes" version="4.5" gridStep="20" showGrid="no" snapToGrid="no" codePlatform="0"/>
    <g id="Layer1" opacity="1">
        <g id="Shape1">
            <desc shapeID="1" type="0" basicInfo-basicType="0" basicInfo-roundedRectRadius="12" basicInfo-polygonSides="6" basicInfo-starPoints="5" bounding="rect(-246,-109.5,492,219)" text="" font-familyName="Rain Tungsten" font-pixelSize="200" font-bold="0" font-underline="0" font-alignment="1" strokeStyle="0" markerStart="0" markerEnd="0" shadowEnabled="0" shadowOffsetX="0" shadowOffsetY="2" shadowBlur="4" shadowOpacity="160" blurEnabled="0" blurRadius="4" transform="matrix(1.01626,0,0,1.02112,250,111.813)" pers-center="0,0" pers-size="0,0" pers-start="0,0" pers-end="0,0" locked="0" mesh="" flag=""/>
            <path id="shapePath1" d="M0,-7.62939e-06 L500,-7.62939e-06 L500,223.626 L0,223.626 L0,-7.62939e-06 M185.274,110.179 C193.81,113.583 198.079,121.071 198.079,132.644 L198.079,156.742 C198.079,174.442 189.271,183.291 171.656,183.291 L141.575,183.291 L141.575,40.3343 L171.249,40.3343 C188.865,40.3343 197.672,49.184 197.672,66.8835 L197.672,87.9186 C197.672,99.6275 193.539,107.048 185.274,110.179 M181.615,65.8624 C181.615,58.6464 178.024,55.0385 170.843,55.0385 L157.631,55.0385 L157.631,103.031 L169.623,103.031 C177.618,103.031 181.615,99.0148 181.615,90.982 L181.615,65.8624 M157.631,117.531 L157.631,168.587 L171.249,168.587 C178.431,168.587 182.022,164.979 182.022,157.763 L182.022,129.58 C182.022,121.548 178.024,117.531 170.03,117.531 L157.631,117.531 M212.903,40.3343 L257.619,40.3343 L257.619,55.4469 L229.163,55.4469 L229.163,102.827 L256.603,102.827 L256.603,117.735 L229.163,117.735 L229.163,168.179 L258.025,168.179 L258.025,183.291 L212.903,183.291 L212.903,40.3343 M297.043,40.3343 L315.133,152.862 L333.222,40.3343 L358.425,40.3343 L358.425,183.291 L342.572,183.291 L342.572,65.0455 L323.06,183.291 L306.393,183.291 L286.881,65.0455 L286.881,183.291 L271.434,183.291 L271.434,40.3343 L297.043,40.3343 Z" style="stroke:none;fill-rule:evenodd;fill:#ffffff;fill-opacity:1;"/>
        </g>
    </g>
</svg>
